REM DIRINDEX 1\2,1\3,1\4,1\6,1\5\7,1\5\8
REM DIRNAME cjc114,folder01,folder02,folder03,folder04,folder05,folder06,folder07
TITLE ""
FILE "DB4500_5th_2A_45.mp3" MP3
  TRACK 01 AUDIO
    TITLE "2:cjc114_1472"
    INDEX 01 00:00:00
  TRACK 02 AUDIO
    TITLE "0:"
    INDEX 01 00:01:17
  TRACK 03 AUDIO
    TITLE "3:cjc114_1473"
    INDEX 01 00:01:42
  TRACK 04 AUDIO
    TITLE "0:"
    INDEX 01 00:02:71
  TRACK 05 AUDIO
    TITLE "4:cjc114_1474"
    INDEX 01 00:03:23
  TRACK 06 AUDIO
    TITLE "0:"
    INDEX 01 00:06:57
  TRACK 07 AUDIO
    TITLE "2:cjc114_1475"
    INDEX 01 00:07:35
  TRACK 08 AUDIO
    TITLE "0:"
    INDEX 01 00:08:44
  TRACK 09 AUDIO
    TITLE "3:cjc114_1476"
    INDEX 01 00:08:73
  TRACK 10 AUDIO
    TITLE "0:"
    INDEX 01 00:10:23
  TRACK 11 AUDIO
    TITLE "4:cjc114_1477"
    INDEX 01 00:10:55
  TRACK 12 AUDIO
    TITLE "0:"
    INDEX 01 00:13:20
  TRACK 13 AUDIO
    TITLE "2:cjc114_1478"
    INDEX 01 00:13:73
  TRACK 14 AUDIO
    TITLE "0:"
    INDEX 01 00:15:01
  TRACK 15 AUDIO
    TITLE "3:cjc114_1479"
    INDEX 01 00:15:27
  TRACK 16 AUDIO
    TITLE "0:"
    INDEX 01 00:16:40
  TRACK 17 AUDIO
    TITLE "4:cjc114_1480"
    INDEX 01 00:16:69
  TRACK 18 AUDIO
    TITLE "0:"
    INDEX 01 00:19:34
  TRACK 19 AUDIO
    TITLE "2:cjc114_1481"
    INDEX 01 00:20:12
  TRACK 20 AUDIO
    TITLE "0:"
    INDEX 01 00:21:11
  TRACK 21 AUDIO
    TITLE "3:cjc114_1482"
    INDEX 01 00:21:41
  TRACK 22 AUDIO
    TITLE "0:"
    INDEX 01 00:22:30
  TRACK 23 AUDIO
    TITLE "4:cjc114_1483"
    INDEX 01 00:22:58
  TRACK 24 AUDIO
    TITLE "0:"
    INDEX 01 00:25:25
  TRACK 25 AUDIO
    TITLE "2:cjc114_1484"
    INDEX 01 00:26:03
  TRACK 26 AUDIO
    TITLE "0:"
    INDEX 01 00:27:02
  TRACK 27 AUDIO
    TITLE "3:cjc114_1485"
    INDEX 01 00:27:32
  TRACK 28 AUDIO
    TITLE "0:"
    INDEX 01 00:28:55
  TRACK 29 AUDIO
    TITLE "4:cjc114_1486"
    INDEX 01 00:29:09
  TRACK 30 AUDIO
    TITLE "0:"
    INDEX 01 00:31:39
  TRACK 31 AUDIO
    TITLE "4:cjc114_1487"
    INDEX 01 00:32:07
  TRACK 32 AUDIO
    TITLE "0:"
    INDEX 01 00:35:66
  TRACK 33 AUDIO
    TITLE "2:cjc114_1488"
    INDEX 01 00:36:40
  TRACK 34 AUDIO
    TITLE "0:"
    INDEX 01 00:37:42
  TRACK 35 AUDIO
    TITLE "3:cjc114_1489"
    INDEX 01 00:37:71
  TRACK 36 AUDIO
    TITLE "0:"
    INDEX 01 00:39:56
  TRACK 37 AUDIO
    TITLE "4:cjc114_1490"
    INDEX 01 00:40:11
  TRACK 38 AUDIO
    TITLE "0:"
    INDEX 01 00:42:65
  TRACK 39 AUDIO
    TITLE "2:cjc114_1491"
    INDEX 01 00:43:42
  TRACK 40 AUDIO
    TITLE "0:"
    INDEX 01 00:44:60
  TRACK 41 AUDIO
    TITLE "3:cjc114_1492"
    INDEX 01 00:45:12
  TRACK 42 AUDIO
    TITLE "0:"
    INDEX 01 00:46:51
  TRACK 43 AUDIO
    TITLE "4:cjc114_1493"
    INDEX 01 00:47:03
  TRACK 44 AUDIO
    TITLE "0:"
    INDEX 01 00:49:61
  TRACK 45 AUDIO
    TITLE "2:cjc114_1494"
    INDEX 01 00:50:39
  TRACK 46 AUDIO
    TITLE "0:"
    INDEX 01 00:51:52
  TRACK 47 AUDIO
    TITLE "3:cjc114_1495"
    INDEX 01 00:52:08
  TRACK 48 AUDIO
    TITLE "0:"
    INDEX 01 00:53:53
  TRACK 49 AUDIO
    TITLE "4:cjc114_1496"
    INDEX 01 00:54:07
  TRACK 50 AUDIO
    TITLE "0:"
    INDEX 01 00:56:67
  TRACK 51 AUDIO
    TITLE "2:cjc114_1497"
    INDEX 01 00:57:45
  TRACK 52 AUDIO
    TITLE "0:"
    INDEX 01 00:58:69
  TRACK 53 AUDIO
    TITLE "3:cjc114_1498"
    INDEX 01 00:59:24
  TRACK 54 AUDIO
    TITLE "0:"
    INDEX 01 01:01:01
  TRACK 55 AUDIO
    TITLE "4:cjc114_1499"
    INDEX 01 01:01:33
  TRACK 56 AUDIO
    TITLE "0:"
    INDEX 01 01:04:07
  TRACK 57 AUDIO
    TITLE "2:cjc114_1500"
    INDEX 01 01:04:60
  TRACK 58 AUDIO
    TITLE "0:"
    INDEX 01 01:06:22
  TRACK 59 AUDIO
    TITLE "3:cjc114_1501"
    INDEX 01 01:06:51
  TRACK 60 AUDIO
    TITLE "0:"
    INDEX 01 01:08:31
  TRACK 61 AUDIO
    TITLE "4:cjc114_1502"
    INDEX 01 01:08:58
  TRACK 62 AUDIO
    TITLE "0:"
    INDEX 01 01:11:62
  TRACK 63 AUDIO
    TITLE "2:cjc114_1503"
    INDEX 01 01:12:40
  TRACK 64 AUDIO
    TITLE "0:"
    INDEX 01 01:13:69
  TRACK 65 AUDIO
    TITLE "3:cjc114_1504"
    INDEX 01 01:14:23
  TRACK 66 AUDIO
    TITLE "0:"
    INDEX 01 01:15:62
  TRACK 67 AUDIO
    TITLE "4:cjc114_1505"
    INDEX 01 01:16:16
  TRACK 68 AUDIO
    TITLE "0:"
    INDEX 01 01:19:23
  TRACK 69 AUDIO
    TITLE "2:cjc114_1506"
    INDEX 01 01:20:02
  TRACK 70 AUDIO
    TITLE "0:"
    INDEX 01 01:21:14
  TRACK 71 AUDIO
    TITLE "3:cjc114_1507"
    INDEX 01 01:21:39
  TRACK 72 AUDIO
    TITLE "0:"
    INDEX 01 01:23:03
  TRACK 73 AUDIO
    TITLE "4:cjc114_1508"
    INDEX 01 01:23:30
  TRACK 74 AUDIO
    TITLE "0:"
    INDEX 01 01:26:58
  TRACK 75 AUDIO
    TITLE "2:cjc114_1509"
    INDEX 01 01:27:38
  TRACK 76 AUDIO
    TITLE "0:"
    INDEX 01 01:28:53
  TRACK 77 AUDIO
    TITLE "3:cjc114_1510"
    INDEX 01 01:29:05
  TRACK 78 AUDIO
    TITLE "0:"
    INDEX 01 01:30:18
  TRACK 79 AUDIO
    TITLE "4:cjc114_1511"
    INDEX 01 01:30:46
  TRACK 80 AUDIO
    TITLE "0:"
    INDEX 01 01:34:14
  TRACK 81 AUDIO
    TITLE "2:cjc114_1512"
    INDEX 01 01:34:67
  TRACK 82 AUDIO
    TITLE "0:"
    INDEX 01 01:36:00
  TRACK 83 AUDIO
    TITLE "3:cjc114_1513"
    INDEX 01 01:36:27
  TRACK 84 AUDIO
    TITLE "0:"
    INDEX 01 01:37:42
  TRACK 85 AUDIO
    TITLE "4:cjc114_1514"
    INDEX 01 01:37:69
  TRACK 86 AUDIO
    TITLE "0:"
    INDEX 01 01:41:30
